# xmcd CD database file
#
# Track frame offsets:
#	150
#	17551
#	41619
#	58469
#	78866
#	91985
#	113214
#	133864
#	149926
#	168694
#	185785
#
# Disc length: 2682 seconds
#
# Revision: 0
# Processed by: cddbd v1.5.2PL0 Copyright (c) Steve Scherf et al.
# Submitted via: CDex 1.51
#
DISCID=a60a780b
DTITLE=Dave Bennett - Out of the Bleu
DYEAR=2004
DGENRE=Jazz
TTITLE0=Satori
TTITLE1=Arrow
TTITLE2=In Memory of Elizabeth Reed
TTITLE3=Sleepwalk
TTITLE4=Caravan
TTITLE5=Bleu
TTITLE6=You're My Weakness
TTITLE7=September
TTITLE8='Til Somebody Breaks Your Heart
TTITLE9=Peg
TTITLE10=Dancin' Shoes
EXTD=YEAR: 2004
EXTT0=
EXTT1=
EXTT2=
EXTT3=
EXTT4=
EXTT5=
EXTT6=
EXTT7=
EXTT8=
EXTT9=
EXTT10=
PLAYORDER=
